<?xml version="1.0" encoding="UTF-8"?>
<!DOCTYPE svg PUBLIC "-//W3C//DTD SVG 1.1//EN" "http://www.w3.org/Graphics/SVG/1.1/DTD/svg11.dtd">
<svg xmlns="http://www.w3.org/2000/svg" version="1.1" width="512px" height="512px" style="shape-rendering:geometricPrecision; text-rendering:geometricPrecision; image-rendering:optimizeQuality; fill-rule:evenodd; clip-rule:evenodd" xmlns:xlink="http://www.w3.org/1999/xlink">
<g><path style="opacity:0.996" fill="#6c0056" d="M 242.5,42.5 C 336.009,41.1452 404.509,81.4785 448,163.5C 479.167,235.641 474.501,305.308 434,372.5C 387.7,438.733 323.867,470.567 242.5,468C 160.408,460.567 100.575,420.4 63,347.5C 33.1601,279 36.1601,212 72,146.5C 111.626,83.9241 168.459,49.2574 242.5,42.5 Z"/></g>
<g><path style="opacity:1" fill="#fdfdfd" d="M 245.5,144.5 C 276.316,141.977 296.482,155.31 306,184.5C 309.472,218.395 294.639,239.229 261.5,247C 232.472,247.889 213.638,234.389 205,206.5C 201.723,174.69 215.223,154.024 245.5,144.5 Z"/></g>
<g><path style="opacity:1" fill="#fefefe" d="M 223.5,259.5 C 244.836,259.333 266.169,259.5 287.5,260C 317.493,264.996 336.327,282.163 344,311.5C 344.667,326.5 344.667,341.5 344,356.5C 342.681,362.076 339.181,365.243 333.5,366C 280.833,366.667 228.167,366.667 175.5,366C 170.938,364.373 168.105,361.206 167,356.5C 166.333,341.5 166.333,326.5 167,311.5C 174.877,282.118 193.71,264.785 223.5,259.5 Z"/></g>
</svg>
